<?xml version="1.0" standalone="no"?>
<!DOCTYPE svg PUBLIC "-//W3C//DTD SVG 20010904//EN"
 "http://www.w3.org/TR/2001/REC-SVG-20010904/DTD/svg10.dtd">
<svg version="1.0" xmlns="http://www.w3.org/2000/svg"
 width="152.000000pt" height="31.000000pt" viewBox="0 0 152.000000 31.000000"
 preserveAspectRatio="xMidYMid meet">

<g transform="translate(0.000000,31.000000) scale(0.100000,-0.100000)"
fill="#000000" stroke="none">
<path d="M404 265 c-10 -8 -14 -15 -9 -14 6 1 18 -1 28 -5 14 -7 17 -22 17
-96 0 -74 -3 -89 -17 -95 -14 -5 -7 -10 27 -21 59 -18 80 -17 109 5 17 13 22
23 16 40 -9 30 -30 20 -28 -13 2 -29 -1 -30 -46 -15 l-31 11 0 95 c0 80 -3 98
-17 109 -23 17 -25 17 -49 -1z"/>
<path d="M662 264 c-26 -18 -29 -34 -6 -34 10 0 14 6 10 15 -7 19 18 20 34 0
8 -9 11 -46 9 -111 -3 -102 2 -116 38 -95 10 6 12 11 6 11 -10 0 -13 28 -13
105 0 93 -2 105 -19 115 -26 13 -33 13 -59 -6z"/>
<path d="M955 271 c-3 -6 4 -15 15 -21 34 -18 23 -54 -17 -58 -31 -3 -33 -1
-33 28 0 36 -23 37 -28 2 -2 -14 -11 -22 -22 -22 -10 0 -22 -4 -25 -10 -4 -6
5 -10 20 -10 l27 0 -4 -72 c-3 -75 5 -89 39 -69 10 6 12 11 6 11 -9 0 -13 20
-13 65 l0 65 36 0 36 0 -4 -72 c-3 -66 -1 -73 16 -73 17 0 19 7 17 78 -1 42 1
77 4 77 3 0 15 -5 26 -10 16 -9 19 -22 19 -75 0 -66 9 -82 36 -67 11 6 13 11
5 16 -6 4 -11 34 -11 69 0 52 -3 64 -21 75 -11 7 -29 10 -40 7 -16 -5 -19 -2
-19 21 0 38 -48 71 -65 45z"/>
<path d="M807 254 c-8 -8 1 -24 14 -24 5 0 9 7 9 15 0 15 -12 20 -23 9z"/>
<path d="M615 201 c-3 -6 -1 -11 4 -11 7 0 11 -29 11 -75 0 -57 4 -77 15 -81
21 -8 38 5 26 20 -5 6 -11 43 -13 81 -2 56 -6 70 -20 73 -9 2 -19 -2 -23 -7z"/>
<path d="M782 201 c-11 -7 -11 -9 2 -14 13 -5 16 -22 16 -76 0 -72 6 -86 34
-75 11 4 13 10 7 18 -6 7 -11 43 -13 81 -3 71 -14 87 -46 66z"/>
</g>
</svg>
